<svg xmlns="http://www.w3.org/2000/svg" version="1.1" xmlns:xlink="http://www.w3.org/1999/xlink" xmlns:svgjs="http://svgjs.dev/svgjs" width="1500" height="1500" viewBox="0 0 1500 1500"><rect width="1500" height="1500" fill="#000000"></rect><g transform="matrix(0.6666666666666666,0,0,0.6666666666666666,249.39393939393938,451.18878575703)"><svg viewBox="0 0 396 237" data-background-color="#ffffff" preserveAspectRatio="xMidYMid meet" height="897" width="1500" xmlns="http://www.w3.org/2000/svg" xmlns:xlink="http://www.w3.org/1999/xlink"><g id="tight-bounds" transform="matrix(1,0,0,1,0.2400000000000091,-0.07481977327107359)"><svg viewBox="0 0 395.52 237.14963954654215" height="237.14963954654215" width="395.52"><g><svg viewBox="0 0 395.52 237.14963954654215" height="237.14963954654215" width="395.52"><g transform="matrix(1,0,0,1,0,146.567991211451)"><svg viewBox="0 0 395.52 90.58164833509116" height="90.58164833509116" width="395.52"><g id="textblocktransform"><svg viewBox="0 0 395.52 90.58164833509116" height="90.58164833509116" width="395.52" id="textblock"><g><svg viewBox="0 0 395.52 90.58164833509116" height="90.58164833509116" width="395.52"><g transform="matrix(1,0,0,1,0,0)"><svg width="395.52" viewBox="1.73 -36.62 162.03 37.11" height="90.58164833509116" data-palette-color="#2ea673"><path d="M1.73 0L1.73-2.69Q4.1-2.69 4.79-3.13 5.47-3.56 5.66-4.06 5.86-4.57 5.86-5.3L5.86-5.3 5.86-31.27Q5.86-32.79 4.96-33.36 4.05-33.94 1.76-33.94L1.76-33.94 1.76-36.62 28.32-36.62 29.27-27.76 25.73-27.73 25.07-30.49Q24.58-32.47 24.07-32.98L24.07-32.98Q23.17-33.89 21.02-33.89L21.02-33.89 11.35-33.89 11.35-19.68 16.09-19.68Q18.85-19.68 19.47-20.04 20.09-20.41 20.32-21.09 20.56-21.78 20.56-23.07L20.56-23.07 23.73-23.07 23.73-13.62 20.56-13.62Q20.56-15.89 19.67-16.44 18.77-16.99 16.09-16.99L16.09-16.99 11.35-16.99 11.35-2.69 21.73-2.69Q24.56-2.69 25.49-4.59L25.49-4.59Q25.78-5.18 26.07-5.81L26.07-5.81 27.17-8.81 30.71-8.81 29.76 0 1.73 0ZM44.14 0L34.91-19.46Q34.18-21.04 33.6-21.56 33.03-22.07 31.17-22.07L31.17-22.07 31.17-24.76 44.24-24.76 44.24-22.07Q41.53-22.07 40.92-21.52 40.31-20.97 40.92-19.46L40.92-19.46 46.43-6.08 52.32-19.46Q52.93-20.85 52.08-21.46 51.24-22.07 48.39-22.07L48.39-22.07 48.39-24.76 59.52-24.76 59.52-22.07Q57.98-22.07 57.18-21.45 56.37-20.83 55.76-19.46L55.76-19.46 46.8 0 44.14 0ZM83.54-11.25L83.54-11.25 66.6-11.25Q66.6-7.06 68.59-4.76 70.58-2.47 73.51-2.47L73.51-2.47Q77.44-2.47 79.15-5.71L79.15-5.71 82.78-5.74Q82.22-3.13 79.57-1.32 76.92 0.49 72.43 0.49 67.94 0.49 64.67-2.29L64.67-2.29Q60.76-5.64 60.76-11.72 60.76-17.8 63.87-21.52 66.99-25.24 72.8-25.24L72.8-25.24Q80.44-25.24 82.69-19.09L82.69-19.09Q83.59-16.63 83.59-14.43 83.59-12.23 83.54-11.25ZM77.9-14.92L77.9-14.92Q77.9-22.39 72.82-22.39L72.82-22.39Q69.97-22.39 68.37-20.17 66.77-17.94 66.62-14.01L66.62-14.01 77.88-14.01Q77.9-14.48 77.9-14.92ZM102.95-21.58L102.95-21.58Q98.94-21.58 96.45-19.09L96.45-19.09 96.45-5.25Q96.45-3.74 96.94-3.34L96.94-3.34Q97.8-2.69 100.16-2.69L100.16-2.69 100.16 0 87.76 0 87.76-2.69Q89.86-2.69 90.4-3.11 90.93-3.54 91.06-4.03 91.18-4.52 91.18-5.25L91.18-5.25 91.18-18.55Q91.18-20.31 90.87-20.85 90.57-21.39 89.2-21.39L89.2-21.39 87.71-21.39 87.71-24.07Q90.01-24.07 91.31-24.43 92.62-24.78 93.17-24.94 93.72-25.1 94.35-25.1L94.35-25.1Q95.65-25.1 96.05-24.35 96.45-23.61 96.45-21.97L96.45-21.97Q99.06-24.17 102.51-24.95L102.51-24.95Q103.65-25.22 104.75-25.22L104.75-25.22Q112.66-25.22 112.66-14.75L112.66-14.75 112.66-5.3Q112.66-3.69 113.13-3.19 113.59-2.69 115.67-2.69L115.67-2.69 115.67 0 104.12 0 104.12-2.69Q106.34-2.69 106.79-3.14 107.24-3.59 107.32-4.08 107.39-4.57 107.39-5.3L107.39-5.3 107.39-14.43Q107.39-17.82 106.76-19.09L106.76-19.09Q105.51-21.58 102.95-21.58ZM129.26 0.49L129.26 0.49Q121.57 0.49 121.57-8.06L121.57-8.06 121.57-20.26Q121.57-21.22 121.34-21.52 121.11-21.83 120.35-21.83L120.35-21.83 118.35-21.83 118.35-24.76 119.25-24.76Q121.11-24.76 121.97-25.93 122.84-27.1 122.91-29.79L122.91-29.79 122.94-31.96 126.85-31.96 126.85-24.76 134.34-24.76 134.34-21.83 126.85-21.83 126.85-8.13Q126.85-3.59 128.95-2.71L128.95-2.71Q129.53-2.47 130.12-2.47L130.12-2.47Q132.68-2.47 133.46-6.69L133.46-6.69 136.29-6.69Q136.05-1.68 132.12-0.05L132.12-0.05Q130.85 0.49 129.26 0.49ZM139.71-12.5L139.71-12.5Q139.71-15.43 140.62-17.91 141.54-20.39 143.18-22.02L143.18-22.02Q146.4-25.24 151.75-25.24L151.75-25.24Q157.14-25.24 160.45-22.01 163.76-18.77 163.76-12.83 163.76-6.88 160.71-3.2 157.65 0.49 151.75 0.49L151.75 0.49Q145.84 0.49 142.77-3.09 139.71-6.67 139.71-12.5ZM151.75-2.44L151.75-2.44Q154.58-2.44 156.35-5.03 158.12-7.62 158.12-12.3L158.12-12.3Q158.12-19.85 154.31-21.73L154.31-21.73Q153.14-22.31 151.75-22.31L151.75-22.31Q147.23-22.31 145.86-16.85L145.86-16.85Q145.37-14.97 145.37-12.45L145.37-12.45Q145.37-7.62 147.14-5.03 148.91-2.44 151.75-2.44Z" opacity="1" transform="matrix(1,0,0,1,0,0)" fill="#ffffff" class="wordmark-text-0" data-fill-palette-color="primary" id="text-0"></path></svg></g></svg></g></svg></g></svg></g><g transform="matrix(1,0,0,1,139.07136325432137,0)"><svg viewBox="0 0 117.37727349135724 125.183837999096" height="125.183837999096" width="117.37727349135724"><g><svg xmlns="http://www.w3.org/2000/svg" xmlns:xlink="http://www.w3.org/1999/xlink" version="1.1" x="0" y="0" viewBox="7.9 5.099999999999987 84.19999999999999 89.80000000000001" enable-background="new 0 0 100 100" xml:space="preserve" height="125.183837999096" width="117.37727349135724" class="icon-icon-0" data-fill-palette-color="accent" id="icon-0"><path d="M74.3 59.3c-4.7 0-9 1.8-12.2 4.8l-12.3-7.4c0.7-2.1 1.1-4.4 1.1-6.7s-0.4-4.6-1.1-6.7l12.3-7.4c3.2 3 7.5 4.8 12.2 4.8 9.8 0 17.8-8 17.8-17.8s-8-17.8-17.8-17.8c-9.8 0-17.8 8-17.8 17.8 0 1.6 0.2 3.2 0.6 4.7L44.8 35c-3.9-4-9.4-6.5-15.4-6.5C17.6 28.5 7.9 38.1 7.9 50s9.6 21.5 21.5 21.5c6 0 11.5-2.5 15.4-6.5l12.3 7.4c-0.4 1.5-0.6 3.1-0.6 4.7 0 9.8 8 17.8 17.8 17.8 9.8 0 17.8-8 17.8-17.8C92.1 67.3 84.1 59.3 74.3 59.3zM29.4 43c-3.9 0-7 3.1-7 7 0 1.8-1.4 3.2-3.2 3.2S16 51.8 16 50c0-7.4 6-13.4 13.4-13.4 1.8 0 3.2 1.4 3.2 3.2S31.2 43 29.4 43z" fill="#ffffff" data-fill-palette-color="accent"></path></svg></g></svg></g><g></g></svg></g><defs></defs></svg><rect width="395.52" height="237.14963954654215" fill="none" stroke="none" visibility="hidden"></rect></g></svg></g></svg>